<svg width="24" height="24" viewBox="0 0 24 24" fill="none" xmlns="http://www.w3.org/2000/svg">
<path d="M20.3373 6.39972H14.9742C15.5392 5.7226 15.88 4.85193 15.88 3.90308C15.88 1.75085 14.1292 0 11.9771 0C9.82489 0 8.07404 1.75085 8.07404 3.90308C8.07404 4.85193 8.41479 5.7226 8.97986 6.39972H3.6167L0.28125 24H23.6728L20.3373 6.39972ZM11.9771 1.40625C13.3537 1.40625 14.4738 2.52631 14.4738 3.90308C14.4738 5.27966 13.3537 6.39972 11.9771 6.39972C10.6003 6.39972 9.48029 5.27966 9.48029 3.90308C9.48029 2.52631 10.6003 1.40625 11.9771 1.40625ZM4.78143 7.80597H19.1726L21.975 22.5938H1.979L4.78143 7.80597Z" fill="black"/>
<path d="M12.0055 12.4026H10.4094L8.17786 14.631V12.4026H7.03088V18.0225H8.17786V16.1017L8.75629 15.5377L10.5044 18.0225H11.985L9.57532 14.7496L12.0055 12.4026Z" fill="black"/>
<path d="M14.2747 16.0007H15.7903V16.617C15.6685 16.7058 15.5026 16.793 15.2955 16.8766C15.0436 16.9786 14.7817 17.0303 14.5177 17.0303C14.2154 17.0303 13.9261 16.9627 13.6575 16.8294C13.3986 16.701 13.2063 16.5092 13.0701 16.2426C12.9294 15.9677 12.8582 15.6152 12.8582 15.195C12.8582 14.8546 12.9186 14.5355 13.0371 14.2474C13.1041 14.0872 13.1995 13.938 13.3207 13.8034C13.4363 13.6752 13.5936 13.569 13.7878 13.4879C13.9858 13.4053 14.2277 13.3634 14.5071 13.3634C14.7347 13.3634 14.9432 13.4028 15.1269 13.4804C15.3016 13.5542 15.4356 13.6511 15.5251 13.7681C15.6222 13.8948 15.7062 14.0775 15.7751 14.3113L15.8395 14.5302L16.8955 14.2405L16.8386 14.0191C16.7417 13.6419 16.5959 13.329 16.4052 13.0886C16.2094 12.8419 15.939 12.6482 15.601 12.5127C15.2736 12.3814 14.9044 12.3149 14.5036 12.3149C13.9539 12.3149 13.4592 12.4307 13.0331 12.6588C12.5969 12.8925 12.2585 13.2534 12.028 13.7314C11.8037 14.1962 11.6902 14.7026 11.6902 15.2373C11.6902 15.7786 11.8052 16.277 12.0324 16.7184C12.2648 17.1703 12.6132 17.5203 13.0684 17.7587C13.5139 17.9921 14.0145 18.1106 14.5563 18.1106C14.9579 18.1106 15.3547 18.0375 15.7357 17.8932C16.1131 17.7506 16.4832 17.5356 16.8356 17.2546L16.9233 17.1848V14.9271L14.2747 14.9313V16.0007Z" fill="black"/>
</svg>
