<svg width="24" height="24" viewBox="0 0 24 24" fill="none" xmlns="http://www.w3.org/2000/svg">
<path d="M24 1.78125H0V19.2266H14.7643V22.2543L17.3884 20.9725L20.0125 22.2543V19.2266H24V1.78125ZM17.3884 16.413C16.0701 16.413 14.9978 15.3406 14.9978 14.0224C14.9978 12.7042 16.0701 11.6318 17.3884 11.6318C18.7066 11.6318 19.7791 12.7042 19.7791 14.0224C19.7791 15.3406 18.7066 16.413 17.3884 16.413ZM17.3884 19.4075L16.1706 20.0023V17.6177C16.5531 17.7477 16.9623 17.8193 17.3884 17.8193C17.8143 17.8193 18.2236 17.7477 18.6063 17.6177V20.0023L17.3884 19.4075ZM22.5938 17.8204H20.0125V16.7626C20.7343 16.071 21.1853 15.0987 21.1853 14.0224C21.1853 11.9288 19.4821 10.2255 17.3884 10.2255C15.2948 10.2255 13.5916 11.9288 13.5916 14.0224C13.5916 15.0987 14.0424 16.0712 14.7643 16.7626V17.8204H1.40625V3.1875H22.5938V17.8204Z" fill="black"/>
<path d="M2.81415 7.41064H21.1859V8.81689H2.81415V7.41064Z" fill="black"/>
<path d="M4.92517 4.59595H19.0748V6.0022H4.92517V4.59595Z" fill="black"/>
<path d="M2.81415 15.0056H9.65442V16.4119H2.81415V15.0056Z" fill="black"/>
<path d="M2.81415 12.1908H9.65442V13.597H2.81415V12.1908Z" fill="black"/>
</svg>
